<svg width="120" height="120" viewBox="0 0 120 120" fill="none" xmlns="http://www.w3.org/2000/svg">
<circle cx="60" cy="60" r="58" stroke="#363636" stroke-width="4"/>
<path d="M41.3334 84C40.5779 84 39.9441 83.744 39.4321 83.232C38.9201 82.72 38.665 82.0871 38.6667 81.3333V78.6667C36.4445 78.6667 34.5556 77.8889 33.0001 76.3333C31.4445 74.7778 30.6667 72.8889 30.6667 70.6667V57.3333C30.6667 55.1111 31.4445 53.2222 33.0001 51.6667C34.5556 50.1111 36.4445 49.3333 38.6667 49.3333V44C38.6667 41.7778 39.4445 39.8889 41.0001 38.3333C42.5556 36.7778 44.4445 36 46.6667 36H73.3334C75.5556 36 77.4445 36.7778 79.0001 38.3333C80.5556 39.8889 81.3334 41.7778 81.3334 44V49.3333C83.5556 49.3333 85.4445 50.1111 87.0001 51.6667C88.5556 53.2222 89.3334 55.1111 89.3334 57.3333V70.6667C89.3334 72.8889 88.5556 74.7778 87.0001 76.3333C85.4445 77.8889 83.5556 78.6667 81.3334 78.6667V81.3333C81.3334 82.0889 81.0774 82.7227 80.5654 83.2347C80.0534 83.7467 79.4205 84.0018 78.6667 84C77.9112 84 77.2774 83.744 76.7654 83.232C76.2534 82.72 75.9983 82.0871 76.0001 81.3333V78.6667H44.0001V81.3333C44.0001 82.0889 43.7441 82.7227 43.2321 83.2347C42.7201 83.7467 42.0872 84.0018 41.3334 84ZM38.6667 73.3333H81.3334C82.089 73.3333 82.7227 73.0773 83.2347 72.5653C83.7467 72.0533 84.0019 71.4204 84.0001 70.6667V57.3333C84.0001 56.5778 83.7441 55.944 83.2321 55.432C82.7201 54.92 82.0872 54.6649 81.3334 54.6667C80.5779 54.6667 79.9441 54.9227 79.4321 55.4347C78.9201 55.9467 78.665 56.5796 78.6667 57.3333V68H41.3334V57.3333C41.3334 56.5778 41.0774 55.944 40.5654 55.432C40.0534 54.92 39.4205 54.6649 38.6667 54.6667C37.9112 54.6667 37.2774 54.9227 36.7654 55.4347C36.2534 55.9467 35.9983 56.5796 36.0001 57.3333V70.6667C36.0001 71.4222 36.2561 72.056 36.7681 72.568C37.2801 73.08 37.913 73.3351 38.6667 73.3333ZM46.6667 62.6667H73.3334V57.3333C73.3334 56.1333 73.5779 55.0444 74.0667 54.0667C74.5556 53.0889 75.2001 52.2222 76.0001 51.4667V44C76.0001 43.2444 75.7441 42.6107 75.2321 42.0987C74.7201 41.5867 74.0872 41.3316 73.3334 41.3333H46.6667C45.9112 41.3333 45.2774 41.5893 44.7654 42.1013C44.2534 42.6133 43.9983 43.2462 44.0001 44V51.4667C44.8001 52.2222 45.4445 53.0889 45.9334 54.0667C46.4223 55.0444 46.6667 56.1333 46.6667 57.3333V62.6667Z" fill="#363636"/>
</svg>
