<svg width="48" height="48" viewBox="0 0 48 48" fill="none" xmlns="http://www.w3.org/2000/svg">
<circle cx="24" cy="24" r="23" stroke="#363636" stroke-width="2"/>
<path d="M15.8334 34.5C15.5029 34.5 15.2256 34.388 15.0016 34.164C14.7776 33.94 14.666 33.6631 14.6667 33.3333V32.1667C13.6945 32.1667 12.8681 31.8264 12.1876 31.1458C11.507 30.4653 11.1667 29.6389 11.1667 28.6667V22.8333C11.1667 21.8611 11.507 21.0347 12.1876 20.3542C12.8681 19.6736 13.6945 19.3333 14.6667 19.3333V17C14.6667 16.0278 15.007 15.2014 15.6876 14.5208C16.3681 13.8403 17.1945 13.5 18.1667 13.5H29.8334C30.8056 13.5 31.632 13.8403 32.3126 14.5208C32.9931 15.2014 33.3334 16.0278 33.3334 17V19.3333C34.3056 19.3333 35.132 19.6736 35.8126 20.3542C36.4931 21.0347 36.8334 21.8611 36.8334 22.8333V28.6667C36.8334 29.6389 36.4931 30.4653 35.8126 31.1458C35.132 31.8264 34.3056 32.1667 33.3334 32.1667V33.3333C33.3334 33.6639 33.2214 33.9412 32.9974 34.1652C32.7734 34.3892 32.4965 34.5008 32.1667 34.5C31.8362 34.5 31.5589 34.388 31.3349 34.164C31.1109 33.94 30.9993 33.6631 31.0001 33.3333V32.1667H17.0001V33.3333C17.0001 33.6639 16.8881 33.9412 16.6641 34.1652C16.4401 34.3892 16.1632 34.5008 15.8334 34.5ZM14.6667 29.8333H33.3334C33.664 29.8333 33.9412 29.7213 34.1652 29.4973C34.3892 29.2733 34.5009 28.9964 34.5001 28.6667V22.8333C34.5001 22.5028 34.3881 22.2255 34.1641 22.0015C33.9401 21.7775 33.6632 21.6659 33.3334 21.6667C33.0029 21.6667 32.7256 21.7787 32.5016 22.0027C32.2776 22.2267 32.166 22.5036 32.1667 22.8333V27.5H15.8334V22.8333C15.8334 22.5028 15.7214 22.2255 15.4974 22.0015C15.2734 21.7775 14.9965 21.6659 14.6667 21.6667C14.3362 21.6667 14.0589 21.7787 13.8349 22.0027C13.6109 22.2267 13.4993 22.5036 13.5001 22.8333V28.6667C13.5001 28.9972 13.6121 29.2745 13.8361 29.4985C14.0601 29.7225 14.337 29.8341 14.6667 29.8333ZM18.1667 25.1667H29.8334V22.8333C29.8334 22.3083 29.9404 21.8319 30.1542 21.4042C30.3681 20.9764 30.6501 20.5972 31.0001 20.2667V17C31.0001 16.6694 30.8881 16.3922 30.6641 16.1682C30.4401 15.9442 30.1632 15.8326 29.8334 15.8333H18.1667C17.8362 15.8333 17.5589 15.9453 17.3349 16.1693C17.1109 16.3933 16.9993 16.6702 17.0001 17V20.2667C17.3501 20.5972 17.632 20.9764 17.8459 21.4042C18.0598 21.8319 18.1667 22.3083 18.1667 22.8333V25.1667Z" fill="#363636"/>
</svg>
